<svg width="357" height="164" viewBox="0 0 357 164" fill="none" xmlns="http://www.w3.org/2000/svg">
<path d="M39.1639 23H0V58.9372H77.9909C77.9909 39.0974 60.5991 23 39.1639 23Z" fill="#64EE85"/>
<path d="M0 89.2606V132.299V141.103L16.2254 132.299L38.8529 120.016V89.2606V60.9523L0 82.0396V89.2606Z" fill="#64EE85"/>
<path d="M41.5485 94.8983H43.8035C62.6726 94.8983 77.965 79.6885 77.965 60.9523H41.5226V94.8983H41.5485Z" fill="#64EE85"/>
<path d="M94.6494 59.0333H119.292V66.5802C119.292 66.6877 119.234 66.7415 119.117 66.7415H104.492V76.7716H117.616V76.8361C117.616 77.1371 117.558 78.7712 117.442 81.7384C117.395 81.7384 117.372 81.7706 117.372 81.8351H117.965V84.1572H106.587V93.6391H103.55V94.5744H106.587V97.4447H119.466V98.5413H118.454V104.218H103.061V105.217H95.7315V88.6724H94.6495V82.8349H86.6565V81.8351H94.6495L94.6494 59.0333ZM94.7191 81.8336V82.8334H98.8377V81.8336H94.7191ZM107.355 95.1213L107.948 95.1213V95.8953H108.018C108.018 95.7448 108.274 95.4868 108.786 95.1213H109.379L108.541 95.9598L109.449 97.2176H108.855C108.413 96.6371 108.169 96.3469 108.122 96.3469C108.006 96.3684 107.948 96.4221 107.948 96.5081V97.2177H107.355L107.355 95.1213ZM110.287 95.1213H111.473C111.846 95.1213 112.102 95.3256 112.241 95.7341C112.241 95.7986 112.125 95.9814 111.892 96.2824C112.055 96.2824 112.171 96.5942 112.241 97.2177H111.822C111.706 97.2177 111.613 96.9596 111.543 96.4436H110.88V97.2177H110.286L110.287 95.1213ZM114.091 95.1213L114.405 95.1213C114.917 95.1213 115.231 95.4331 115.348 96.0566V96.3468C115.348 96.5188 115.266 96.7016 115.103 96.8951V96.9919C115.266 96.9919 115.348 97.0348 115.348 97.1209C115.348 97.2069 115.266 97.2929 115.103 97.3789C115.01 97.3789 114.917 97.2929 114.824 97.1209L114.405 97.2177H114.091C113.533 97.2177 113.219 96.8306 113.149 96.0566C113.312 95.4331 113.626 95.1213 114.091 95.1213ZM113.742 96.0566V96.2824C113.742 96.6479 113.94 96.8307 114.335 96.8307H114.405V96.7339H114.266V96.6694C114.266 96.5834 114.347 96.5081 114.51 96.4436L114.754 96.5727C114.754 96.5511 114.778 96.4006 114.824 96.1211C114.801 95.7126 114.58 95.5083 114.161 95.5083C113.882 95.5728 113.742 95.7556 113.742 96.0566ZM110.88 95.5728V96.0565H111.473C111.59 96.0565 111.648 96.0028 111.648 95.8953V95.734C111.648 95.6265 111.59 95.5728 111.473 95.5728L110.88 95.5728ZM118.978 98.9912H119.466V99.088C119.466 100.013 119.385 100.475 119.222 100.475C119.059 100.475 118.978 100.142 118.978 99.475L118.978 98.9912ZM118.978 100.539H119.466V101.023H118.978V100.539ZM137.023 59.0333H145.435C145.551 59.4848 148.286 67.8917 153.638 84.2537H155.138V99.444H151.683V100.637H155.138V103.895H145.854V94.5419H134.475V98.5089H129.867V105.217H121.421V104.766H122.084V98.5092H125.539V85.5765H128.401L137.023 59.0333ZM140.967 72.0287V72.1255C140.246 75.7804 138.85 81.5645 136.779 89.4767H144.597V84.2521H143.934C142.073 76.7699 141.142 72.6955 141.142 72.0288L140.967 72.0287ZM126.063 83.2527H126.831C126.831 83.4462 126.936 83.6075 127.145 83.7364C127.169 83.5429 127.285 83.3817 127.494 83.2527H128.088V83.3172C127.692 83.8332 127.494 84.1235 127.494 84.188C127.588 84.3815 127.809 84.6933 128.158 85.1232V85.2845H127.843C127.518 85.2845 127.285 85.0695 127.145 84.6395C126.796 85.0695 126.599 85.2845 126.552 85.2845H126.133C126.017 85.2845 125.959 85.2307 125.959 85.1232C126.028 85.1232 126.261 84.833 126.657 84.2525V84.1235C126.261 83.5859 126.063 83.2957 126.063 83.2527ZM118.978 84.188H125.54L125.539 85.5765L118.978 85.5748V84.188ZM155.383 85.1876L157.163 85.1876V85.5746L156.081 86.8324H157.093C157.186 86.8539 157.233 86.9077 157.233 86.9937V87.155C157.233 87.2625 157.186 87.3162 157.093 87.3162H155.313V86.9292L156.395 85.6714H155.383V85.1876ZM142.503 87.2197L142.992 87.2197V87.9937L143.934 87.2197H144.423V87.3164L143.69 88.0905C144.248 88.8215 144.528 89.23 144.528 89.316H144.004C143.958 89.316 143.702 89.0365 143.236 88.4775C143.166 88.4775 143.085 88.5527 142.992 88.7032V89.316H142.503L142.503 87.2197ZM155.557 87.9291H156.569C157.081 87.9936 157.337 88.2301 157.337 88.6386L157.093 89.0256C157.256 89.1976 157.337 89.5094 157.337 89.9609V90.0254H156.814C156.767 89.5094 156.686 89.2513 156.569 89.2513H155.976V90.0254H155.557C155.441 90.0254 155.383 89.9716 155.383 89.8641V88.0903C155.406 87.9828 155.464 87.9291 155.557 87.9291ZM155.976 88.3805V88.8643H156.57C156.686 88.8643 156.744 88.8105 156.744 88.703V88.3805L155.976 88.3805ZM155.383 90.6381L156.988 90.6381C157.105 90.6596 157.163 90.7134 157.163 90.7994V90.9606C157.163 91.0681 157.105 91.1219 156.988 91.1219H156.5V92.7667H155.906V91.1219H155.383C155.266 91.1219 155.208 91.0681 155.208 90.9606V90.7994C155.232 90.6919 155.29 90.6381 155.383 90.6381ZM155.208 93.3796H155.627C155.79 93.3796 155.965 93.8203 156.151 94.7019H156.221C156.5 93.9278 156.639 93.4871 156.639 93.3796H157.233C156.791 94.7771 156.511 95.4759 156.395 95.4759H155.906L155.208 93.3796ZM137.023 95.1533V95.5726C137.023 95.6586 136.57 95.8306 135.662 96.0886V96.1854L137.023 96.6369V97.1207L134.894 96.4111V95.8628L137.023 95.1533ZM123.934 96.0886H124.213C124.399 96.0886 124.702 96.7981 125.121 98.2172H124.632C124.632 98.1742 124.574 98.013 124.457 97.7334H123.69C123.643 98.056 123.562 98.2172 123.445 98.2172H123.026C123.515 96.7981 123.818 96.0886 123.934 96.0886ZM156.325 96.0886H156.57C157.128 96.0886 157.466 96.4541 157.582 97.1852C157.419 97.9162 157.058 98.2817 156.5 98.2817C155.709 98.1527 155.313 97.7872 155.313 97.1852C155.429 96.4541 155.767 96.0886 156.325 96.0886ZM155.906 97.1207V97.1852C155.906 97.4647 156.046 97.6797 156.325 97.8302H156.57C156.849 97.6797 156.988 97.4647 156.988 97.1852V97.1207C156.942 96.7122 156.744 96.5079 156.395 96.5079C156.069 96.6154 155.906 96.8197 155.906 97.1207ZM124.039 96.7983C123.922 97.1424 123.864 97.3251 123.864 97.3466H124.283L124.108 96.7983H124.039ZM145.854 104.442H157.093V105.216H145.854V104.442ZM176.988 59.0003C183.969 59.0003 188.367 61.0106 190.182 65.0313C190.694 66.0204 190.95 66.6762 190.95 66.9987H186.552V68.2242H191.264V68.1597C191.264 67.9447 191.16 67.5577 190.95 66.9987L199.013 66.9987V68.2242H191.369V68.3209C191.765 70.041 192.044 71.9009 192.207 73.9006C192.207 74.008 189.147 74.2123 183.027 74.5133V74.4488C183.027 69.3101 181.119 66.7407 177.302 66.7407H176.325C173.463 66.7407 171.718 67.8587 171.09 70.0948C170.578 71.9868 170.322 74.4703 170.322 77.5449V83.8339L170.252 84.7692H167.076V86.2528H170.252V97.444H183.725V85.8013H191.439V97.444H187.145V104.604H178.175V105.217H171.194V104.604H164.109V101.024H168.821V99.4759H161.77V94.1866H158.733V87.6717H160.339C160.269 84.9626 160.234 82.8341 160.234 81.2859C160.234 74.2552 160.607 69.8262 161.351 67.9985C162.026 65.8915 163.143 64.0745 164.702 62.5481C167.471 60.183 171.567 59.0003 176.988 59.0003ZM170.915 95.1213H171.334V96.7339H172.346V97.2176H170.915C170.822 97.2176 170.776 97.1639 170.776 97.0564V95.2825C170.776 95.1751 170.822 95.1213 170.915 95.1213ZM181.421 95.1213L181.945 95.1213C182.224 95.3364 182.364 95.5406 182.364 95.7341C182.41 95.7341 182.608 95.5299 182.957 95.1213H183.376V95.2826C182.98 95.7556 182.783 96.0889 182.783 96.2824C182.852 96.2824 183.073 96.5619 183.446 97.1209V97.2177H182.957L182.364 96.6049C182.154 96.9704 181.991 97.1746 181.875 97.2176H181.351C181.468 97.0026 181.724 96.6371 182.119 96.1211L181.421 95.1858V95.1213ZM188.332 97.9271C188.891 98.0561 189.17 98.2066 189.17 98.3786V98.7011H188.821L188.507 98.3786H188.158C188.041 98.4001 187.983 98.4539 187.983 98.5399V98.7012C188.844 98.8517 189.275 99.0237 189.275 99.2172V99.4752C189.275 99.8837 189.019 100.088 188.507 100.088H188.158C187.855 100.088 187.611 99.9375 187.425 99.6365V99.314H187.913C187.913 99.572 188.076 99.701 188.402 99.701H188.507C188.577 99.701 188.658 99.6257 188.751 99.4752C188.751 99.4107 188.356 99.2279 187.564 98.9269L187.495 98.7657V98.3787C187.495 98.2067 187.774 98.0561 188.332 97.9271ZM213.638 59.0003C220.805 59.0003 225.517 61.3224 227.774 65.9666C229.054 68.2242 229.694 72.5783 229.694 79.0284V79.2542H225.994V80.8022H229.694V97.476H227.251V103.507H222.399V105.216H205.436V103.507H203.341V97.476H198.978V92.7673H201.596V90.3162H198.978V92.7673H192.8V90.3162H197.477C197.431 86.5322 197.408 83.6401 197.408 81.6405V77.7058C197.408 70.3954 198.746 65.5043 201.421 63.0314C203.888 60.3438 207.96 59.0003 213.638 59.0003ZM207.53 74.932L207.599 74.932L207.53 75.061V79.2536H203.76V80.8016H207.53C207.46 87.4453 207.425 92.4658 207.425 95.8628V97.4754H215.802V94.9275H219.641V94.863C219.641 91.7239 219.618 87.3485 219.572 81.7368C219.572 81.5003 219.595 80.8983 219.641 79.9307C219.641 73.8458 219.258 70.1156 218.49 68.7395C217.698 67.4064 216.244 66.7399 214.127 66.7399H212.87C210.357 66.7399 208.798 67.7612 208.193 69.8037C207.914 70.8358 207.692 72.5455 207.53 74.932ZM229.694 79.2542L235.697 79.2537V80.8017L229.694 80.8022V79.2542ZM230.113 81.0919H230.287C230.427 81.0919 230.532 81.4036 230.601 82.0271C230.694 82.0271 230.834 81.7154 231.02 81.0919H231.265C231.404 81.0919 231.521 81.4251 231.614 82.0916H231.683L231.928 81.0919H232.347V81.1886C232.091 82.3066 231.905 82.8657 231.788 82.8657H231.439C231.439 82.7796 231.358 82.4464 231.195 81.8659H231.125C231.032 82.5324 230.916 82.8657 230.776 82.8657H230.427C230.264 82.1991 230.101 81.6401 229.938 81.1886L230.113 81.0919ZM230.286 83.4139H230.6C230.74 83.4139 230.914 83.7793 231.124 84.5104H231.194C231.194 84.4029 231.298 84.0374 231.508 83.4139H232.101V85.1877H231.682V84.2847H231.612C231.449 84.8867 231.31 85.1877 231.194 85.1877H230.949C230.786 84.7147 230.705 84.4352 230.705 84.3491H230.6C230.6 84.9081 230.542 85.1877 230.426 85.1877H230.112V83.5751C230.135 83.4676 230.193 83.4139 230.286 83.4139ZM230.008 85.7362L230.357 85.7362C230.636 85.8867 230.776 86.0695 230.776 86.2845C230.799 86.2845 230.962 86.1018 231.265 85.7363H231.614V85.8975L231.125 86.5748C231.125 86.6178 231.311 86.9081 231.683 87.4456V87.5101H231.265L230.776 86.9618C230.59 87.3273 230.45 87.5101 230.357 87.5101H229.938C230.334 86.9726 230.532 86.6608 230.532 86.5748C230.183 86.1017 230.008 85.8222 230.008 85.7362ZM230.286 88.0582H230.775C231.333 88.0582 231.612 88.241 231.612 88.6065V88.671L231.438 88.8967C231.531 88.8967 231.612 88.9828 231.682 89.1548V89.445C231.566 89.703 231.287 89.832 230.845 89.832H230.112V88.2195C230.135 88.112 230.193 88.0582 230.286 88.0582ZM230.601 88.4453V88.7678H231.124V88.4453H230.601ZM217.652 88.4453H218.14V89.058H218.734V88.6065C218.757 88.499 218.815 88.4453 218.908 88.4453H219.222V90.1546H218.734V89.4451H218.14V90.1546H217.652V88.4453ZM230.601 89.0579V89.4449H231.194V89.2191C231.194 89.1116 231.136 89.0579 231.019 89.0579L230.601 89.0579ZM230.286 90.3802L231.368 90.3802C231.461 90.4017 231.508 90.4554 231.508 90.5415V90.7672H230.6V91.0575H231.438V91.4445H230.6V91.767H231.508V92.154H230.111V90.5415C230.135 90.434 230.193 90.3802 230.286 90.3802ZM217.652 90.7673H219.048V90.9285C219.048 91.122 218.769 91.509 218.21 92.0896C218.838 92.0896 219.153 92.1325 219.153 92.2186V92.4766H217.547V92.1541C217.966 91.7025 218.245 91.3693 218.385 91.1543H217.652V90.7673ZM208.856 92.9925C209.345 92.9925 209.624 93.3365 209.694 94.0245C209.694 94.5191 209.356 94.7986 208.681 94.8631C208.123 94.7341 207.844 94.4546 207.844 94.0245C207.844 93.3365 208.181 92.9925 208.856 92.9925ZM218.141 93.0893H218.629C218.629 93.2183 218.862 93.7773 219.327 94.7663H218.909C218.792 94.7663 218.734 94.6696 218.734 94.4761H218.141C218.024 94.4761 217.966 94.5728 217.966 94.7663H217.477V94.7018C217.594 94.5083 217.815 93.9708 218.141 93.0893ZM208.367 93.7022V94.0247C208.367 94.3257 208.53 94.4762 208.856 94.4762C209.089 94.4333 209.205 94.2827 209.205 94.0247V93.7022C209.205 93.6162 209.089 93.5087 208.856 93.3797H208.681C208.612 93.3797 208.507 93.4872 208.367 93.7022ZM218.315 93.7022L218.21 94.0892H218.559C218.49 93.8312 218.408 93.7022 218.315 93.7022ZM208.682 95.3148C209.054 95.3148 209.333 95.4761 209.519 95.7986V96.0244H209.1C209.1 95.8093 208.937 95.7018 208.612 95.7018L208.367 96.0244V96.3146C208.367 96.6371 208.53 96.7984 208.856 96.7984C208.903 96.7984 209.042 96.6694 209.275 96.4113H209.624C209.624 96.8414 209.31 97.0994 208.682 97.1854C208.123 97.0349 207.844 96.7446 207.844 96.3146C207.914 95.6481 208.193 95.3148 208.682 95.3148ZM233.568 59.0003L244.179 59.0002C244.249 59.5163 245.587 65.5151 248.193 76.9964H250.392V78.7702H247.739V76.9964H244.005V78.7702H247.739V87.0589H248.926V91.3482H251.858V85.0268H252.94V78.7702H255.069V76.9964H253.394C256.023 65.5148 257.373 59.5161 257.442 59.0002H268.054C264.214 74.4164 262.294 82.2751 262.294 82.576V90.6064H259.363V92.219H261.561V96.9277H257.617V105.216H245.191C245.052 105.216 244.714 104.034 244.179 101.669H247.39V99.7337H243.795C243.655 99.7337 243.33 98.4867 242.818 95.9926C242.562 95.2401 239.479 82.9086 233.568 59.0003ZM258.176 97.2822H259.258C259.56 97.2822 259.77 97.4434 259.886 97.7659L259.642 98.2819C259.758 98.2819 259.839 98.5615 259.886 99.1205H259.537C259.421 99.1205 259.328 98.8947 259.258 98.4432H258.629V99.1205H258.176V97.2822ZM258.629 97.6045V98.0237H259.188C259.304 98.0237 259.362 97.97 259.362 97.8625V97.7657C259.362 97.6582 259.304 97.6045 259.188 97.6045L258.629 97.6045ZM258.176 99.7977H259.642V100.056C259.642 100.163 259.572 100.217 259.432 100.217H258.629V100.475H259.432V100.894H258.629V101.668H258.176L258.176 99.7977ZM258.176 102.345H258.629V104.216H258.176V102.345ZM274.266 59.0333H298.909V66.5802C298.909 66.6877 298.85 66.7415 298.734 66.7415H284.109V76.7716H297.233V76.8361C297.233 77.1371 297.175 78.7712 297.059 81.7384C297.012 81.7384 296.989 81.7706 296.989 81.8351H297.582V84.1572H286.204V93.6391H283.167V94.5744H286.204V97.4447H299.083V98.5413H298.071V104.218H282.678V105.217H275.348V88.6724H274.266V82.8349H266.273V81.8351H274.266L274.266 59.0333ZM274.336 81.8336V82.8334H278.455V81.8336H274.336ZM286.972 95.1213L287.565 95.1213V95.8953H287.635C287.635 95.7448 287.891 95.4868 288.403 95.1213H288.996L288.158 95.9598L289.066 97.2176H288.472C288.03 96.6371 287.786 96.3469 287.739 96.3469C287.623 96.3684 287.565 96.4221 287.565 96.5081V97.2177H286.972L286.972 95.1213ZM289.903 95.1213H291.09C291.463 95.1213 291.718 95.3256 291.858 95.7341C291.858 95.7986 291.742 95.9814 291.509 96.2824C291.672 96.2824 291.788 96.5942 291.858 97.2177H291.439C291.323 97.2177 291.23 96.9596 291.16 96.4436H290.497V97.2177H289.903L289.903 95.1213ZM293.708 95.1213L294.022 95.1213C294.534 95.1213 294.848 95.4331 294.965 96.0566V96.3468C294.965 96.5188 294.883 96.7016 294.72 96.8951V96.9919C294.883 96.9919 294.965 97.0348 294.965 97.1209C294.965 97.2069 294.883 97.2929 294.72 97.3789C294.627 97.3789 294.534 97.2929 294.441 97.1209L294.022 97.2177H293.708C293.15 97.2177 292.836 96.8306 292.766 96.0566C292.929 95.4331 293.243 95.1213 293.708 95.1213ZM293.359 96.0566V96.2824C293.359 96.6479 293.557 96.8307 293.952 96.8307H294.022V96.7339H293.883V96.6694C293.883 96.5834 293.964 96.5081 294.127 96.4436L294.371 96.5727C294.371 96.5511 294.395 96.4006 294.441 96.1211C294.418 95.7126 294.197 95.5083 293.778 95.5083C293.499 95.5728 293.359 95.7556 293.359 96.0566ZM290.497 95.5728V96.0565H291.09C291.207 96.0565 291.265 96.0028 291.265 95.8953V95.734C291.265 95.6265 291.207 95.5728 291.09 95.5728L290.497 95.5728ZM298.594 98.9912H299.083V99.088C299.083 100.013 299.002 100.475 298.839 100.475C298.676 100.475 298.594 100.142 298.594 99.475V98.9912ZM298.594 100.539H299.083V101.023H298.594V100.539ZM302.12 59.096L319.223 59.096C324.948 59.096 328.647 60.9558 330.323 64.6756C331.044 66.5892 331.405 68.7823 331.405 71.2549V73.19C331.405 77.6623 330.346 81.0698 328.229 83.4136H324.599V85.1229H330.148V96.1527H326.867V97.862H331.824V104.377H321.422V93.9598H317.408V87.2193H310.427V98.6362H311.928V105.215H302.295C302.178 105.215 302.12 105.162 302.12 105.054V86.5419H306.414V85.2196H302.12L302.12 59.096ZM311.928 66.6126V79.642H314.302C317.862 79.642 319.921 79.3303 320.479 78.7068C321.061 78.3627 321.515 77.664 321.841 76.6104H325.541V74.9656H322.19V75.1268C322.004 76.1159 321.864 76.6104 321.771 76.6104H316.989V74.9656H322.016C322.132 74.9656 322.19 74.9226 322.19 74.8366C322.237 73.5035 322.26 72.751 322.26 72.579C322.26 69.6979 321.725 67.9347 320.654 67.2897C319.817 66.8382 318.281 66.6124 316.047 66.6124L311.928 66.6126ZM310.846 87.6067H311.265C311.498 87.7142 311.614 87.8755 311.614 88.0905C311.707 88.0905 311.812 87.9292 311.928 87.6067H312.452V87.7035L311.928 88.3808C311.928 88.4238 312.126 88.714 312.522 89.2516V89.3161H312.103C312.056 89.3161 311.893 89.1333 311.614 88.7678C311.451 89.1118 311.311 89.2946 311.195 89.3161H310.776C311.149 88.7786 311.335 88.4668 311.335 88.3808L310.846 87.6067ZM310.916 89.9287H312.452V90.1868L311.509 91.2511H312.452V91.6381H310.846V91.3478L311.754 90.2513H310.916V89.9287Z" fill="#F5F5F5"/>
</svg>
